<svg width="100" height="100" viewBox="0 0 64 64" xmlns="http://www.w3.org/2000/svg">
    <path d="M43.7,23.3c-1.2,0-2.4,0.2-3.5,0.6c-2.2-3.1-5.8-5.1-9.7-5.1c-5.2,0-9.5,4.3-9.5,9.5c0,1.3,0.3,2.6,0.8,3.7C10.5,31.5,6,36.7,6,43.3c0,7.2,5.8,13,13,13h27.3c7.2,0,13-5.8,13-13S50.9,23.3,43.7,23.3z M43.7,50.7H16.3c-6.2,0-11.2-5-11.2-11.2c0-5.4,4.4-9.7,9.7-9.7h0.4c1.8,0,3.5-0.5,5-1.4c1.7-1.1,2.9-2.6,3.7-4.4c1.1-2.3,3.4-3.9,6.1-3.9c2.6,0,4.9,1.4,6.1,3.6c1.2,2.2,3.2,3.6,5.5,3.6c1.7,0,3.4-0.6,4.7-1.6c1.6-1.2,3.5-1.9,5.6-1.9c4.7,0,8.5,3.8,8.5,8.5C52.2,46.9,48.4,50.7,43.7,50.7z" fill="#000000"/>
</svg>