<svg
    xmlns="http://www.w3.org/2000/svg"
    viewBox="0 0 64 64"
    width="64"
    height="64"
    fill="#000000"
  >
    <path d="M2 12h60v10H2z" fill="#f5f5f5" />
    <path d="M4 22h56v10H4z" fill="#e0e0e0" />
    <path d="M2 32h60v10H2z" fill="#e0e0e0" />
    <path d="M2 42h60v10H2z" fill="#f5f5f5" />
    <path d="M8 2h8v10H8z" fill="#607d8b" />
    <path d="M12 12h8v10h-8z" fill="#455a64" />
    <path d="M20 12h8v10h-8z" fill="#455a64" />
    <path d="M28 2h8v10h-8z" fill="#607d8b" />
    <path d="M36 12h8v10h-8z" fill="#455a64" />
    <path d="M44 12h8v10h-8z" fill="#455a64" />
    <path d="M52 2h8v10h-8z" fill="#607d8b" />
    <circle cx="16" cy="44" r="6" fill="#9e9e9e" />
    <circle cx="48" cy="44" r="6" fill="#9e9e9e" />
  </svg>